<svg width="32" height="32" fill="none" xmlns="http://www.w3.org/2000/svg"><circle cx="16" cy="16" r="16" fill="#2E2FB2"/><path d="M22.46 17.463c.595.582 1.224 1.13 1.758 1.77.236.284.46.578.63.908.243.47.024.986-.397 1.014h-2.617c-.675.055-1.213-.216-1.666-.678-.363-.369-.698-.762-1.046-1.143a2.482 2.482 0 00-.471-.419c-.358-.232-.668-.16-.872.212-.208.379-.255.799-.275 1.22-.028.617-.215.779-.834.807-1.322.063-2.578-.138-3.744-.805-1.028-.588-1.825-1.419-2.52-2.359-1.35-1.83-2.385-3.842-3.315-5.91-.21-.466-.057-.716.458-.725a71.039 71.039 0 012.561-.001c.347.005.577.204.711.532a15.878 15.878 0 001.736 3.217c.19.267.382.533.656.721.304.208.535.139.678-.2.09-.213.13-.444.15-.674.068-.79.077-1.578-.042-2.365-.073-.491-.35-.81-.84-.902-.25-.048-.212-.14-.091-.284.21-.246.408-.399.802-.399h2.958c.465.092.569.301.632.77l.003 3.285c-.005.18.09.72.417.84.262.085.434-.125.59-.29.709-.752 1.214-1.64 1.666-2.56.2-.404.372-.824.54-1.244.123-.311.317-.464.668-.457l2.846.002c.084 0 .17.001.252.015.48.082.61.288.463.757-.234.735-.688 1.347-1.132 1.962-.475.657-.982 1.291-1.453 1.952-.433.603-.398.907.14 1.431z" fill="#fff"/></svg>