<svg width="32" height="32" fill="none" xmlns="http://www.w3.org/2000/svg"><circle cx="16" cy="16" r="16" fill="#2E2FB2"/><path d="M19.771 7H12.23A5.235 5.235 0 007 12.229v7.542A5.235 5.235 0 0012.229 25h7.542A5.235 5.235 0 0025 19.771V12.23A5.235 5.235 0 0019.771 7zm3.823 12.771a3.827 3.827 0 01-3.823 3.823H12.23a3.827 3.827 0 01-3.823-3.823V12.23a3.827 3.827 0 013.823-3.823h7.542a3.827 3.827 0 013.823 3.823v7.542z" fill="#fff"/><path d="M16 11.148A4.857 4.857 0 0011.148 16 4.857 4.857 0 0016 20.852 4.857 4.857 0 0020.852 16 4.857 4.857 0 0016 11.148zm0 8.297A3.45 3.45 0 0112.555 16 3.45 3.45 0 0116 12.555 3.45 3.45 0 0119.445 16 3.45 3.45 0 0116 19.445zm4.922-7.664a.703.703 0 100-1.406.703.703 0 000 1.406z" fill="#fff"/></svg>