<svg width="32" height="32" fill="none" xmlns="http://www.w3.org/2000/svg"><circle cx="16" cy="16" r="16" fill="#2E2FB2"/><path d="M23.969 11.566a6.55 6.55 0 01-1.882.516 3.286 3.286 0 001.44-1.813 6.558 6.558 0 01-2.08.795 3.276 3.276 0 00-5.583 2.988 9.301 9.301 0 01-6.752-3.423 3.275 3.275 0 001.014 4.374 3.262 3.262 0 01-1.484-.41v.042a3.278 3.278 0 002.628 3.212 3.283 3.283 0 01-1.48.056 3.28 3.28 0 003.06 2.276A6.573 6.573 0 018 21.535a9.272 9.272 0 005.022 1.472c6.026 0 9.321-4.992 9.321-9.321 0-.142-.003-.284-.009-.424a6.653 6.653 0 001.635-1.696z" fill="#fff"/></svg>