<svg width="32" height="32" fill="none" xmlns="http://www.w3.org/2000/svg"><circle cx="16" cy="16" r="16" fill="#2E2FB2"/><path d="M12.258 16.522h1.754v7.22c0 .142.115.258.258.258h2.974a.258.258 0 00.258-.258v-7.186h2.016a.258.258 0 00.256-.229l.307-2.658a.258.258 0 00-.257-.288h-2.322v-1.666c0-.502.27-.757.804-.757h1.518a.258.258 0 00.258-.258V8.26a.258.258 0 00-.258-.258h-2.092A2.05 2.05 0 0017.636 8c-.363 0-1.625.071-2.622.988-1.105 1.017-.951 2.234-.915 2.445v1.948h-1.84a.258.258 0 00-.259.258v2.625c0 .142.116.258.258.258z" fill="#fff"/></svg>