<svg width="162" height="16" fill="none" xmlns="http://www.w3.org/2000/svg"><path d="M5.985 6.766c0 .796-.63 1.441-1.405 1.441-.776 0-1.405-.645-1.405-1.44 0-.796.63-1.442 1.405-1.442.776 0 1.405.646 1.405 1.441z" fill="#EC1947"/><path d="M5.516 10.903c0 .53-.419.96-.936.96a.949.949 0 01-.937-.96.95.95 0 01.937-.961c.517 0 .936.43.936.96zm4.5-6.205c0 .796-.628 1.441-1.404 1.441-.776 0-1.405-.645-1.405-1.44 0-.797.629-1.442 1.405-1.442s1.405.645 1.405 1.441zm4.033 2.068c0 .796-.629 1.442-1.405 1.442-.775 0-1.405-.646-1.405-1.442 0-.796.63-1.44 1.405-1.44.776 0 1.405.644 1.405 1.44zm4.033 2.068c0 .797-.63 1.442-1.405 1.442-.776 0-1.405-.645-1.405-1.442 0-.796.629-1.44 1.405-1.44s1.405.644 1.405 1.44zm-4.033 2.069c0 .796-.629 1.441-1.405 1.441-.775 0-1.405-.645-1.405-1.441s.63-1.441 1.405-1.441c.776 0 1.405.645 1.405 1.44zm8.065 0c0 .796-.63 1.441-1.405 1.441-.776 0-1.405-.645-1.405-1.441s.629-1.441 1.405-1.441 1.405.645 1.405 1.44zm-.468 4.136a.95.95 0 01-.937.961.95.95 0 01-.937-.96.95.95 0 01.937-.962c.518 0 .937.43.937.961zm4.032-2.068c0 .53-.42.96-.936.96a.949.949 0 01-.937-.96c0-.53.42-.96.937-.96.517 0 .936.43.936.96zm.469-4.137c0 .797-.63 1.442-1.405 1.442-.777 0-1.405-.645-1.405-1.442 0-.795.628-1.44 1.405-1.44.775 0 1.405.645 1.405 1.44zm-4.033-2.068c0 .796-.63 1.441-1.405 1.441-.776 0-1.405-.645-1.405-1.44 0-.797.629-1.442 1.405-1.442s1.405.645 1.405 1.441zm-4.5 6.205c0 .53-.42.96-.937.96a.95.95 0 01-.937-.96c0-.53.42-.96.937-.96a.95.95 0 01.937.96zm8.533-8.273c0 .796-.63 1.441-1.405 1.441-.776 0-1.405-.645-1.405-1.441s.629-1.441 1.405-1.441 1.405.645 1.405 1.441zM29.71 2.63c0 .53-.42.96-.937.96a.949.949 0 01-.937-.96c0-.53.42-.961.937-.961a.95.95 0 01.937.96zm0 8.273c0 .53-.42.96-.937.96a.95.95 0 01-.937-.96.95.95 0 01.937-.961.95.95 0 01.937.96zM17.614 4.698a.95.95 0 01-.937.961.95.95 0 01-.937-.96.95.95 0 01.937-.962.95.95 0 01.937.961zM13.58 15.04a.95.95 0 01-.937.961.949.949 0 01-.936-.96c0-.532.419-.962.936-.962.518 0 .937.43.937.961zm-3.564-6.205c0 .797-.629 1.442-1.405 1.442S7.207 9.63 7.207 8.834c0-.795.629-1.44 1.405-1.44s1.405.645 1.405 1.44zm-8.922 4.137c0 .31-.246.562-.548.562A.554.554 0 010 12.97c0-.31.245-.562.547-.562.302 0 .548.252.548.562zm0-4.137c0 .31-.246.562-.548.562A.554.554 0 010 8.834c0-.31.245-.561.547-.561.302 0 .548.251.548.561zm8.064 4.108c0 .31-.245.561-.547.561a.554.554 0 01-.547-.561c0-.31.245-.562.547-.562.302 0 .547.252.547.562zm0-12.38c0 .31-.244.561-.547.561a.554.554 0 01-.547-.561c0-.31.245-.562.547-.562.303 0 .547.251.547.562zM5.127 2.63c0 .31-.245.561-.547.561a.554.554 0 01-.548-.561c0-.31.245-.562.548-.562.302 0 .547.251.547.562zm8.065 0c0 .31-.245.561-.548.561a.554.554 0 01-.547-.561c0-.31.245-.562.547-.562.303 0 .548.251.548.562zm24.194 4.136c0 .31-.245.562-.547.562a.555.555 0 01-.548-.562c0-.31.245-.561.548-.561.302 0 .547.25.547.561zm-8.065 8.273c0 .31-.244.562-.547.562a.555.555 0 01-.548-.562c0-.31.245-.561.548-.561.303 0 .547.25.547.561zm4.89-10.34c0 .795-.63 1.44-1.405 1.44-.776 0-1.405-.645-1.405-1.44 0-.796.63-1.442 1.405-1.442.776 0 1.405.646 1.405 1.441zM30.18 6.765c0 .796-.63 1.441-1.405 1.441-.776 0-1.405-.645-1.405-1.44 0-.796.629-1.442 1.405-1.442s1.405.646 1.405 1.441zm3.175 6.205c0 .31-.245.562-.548.562a.554.554 0 01-.547-.562c0-.31.244-.562.547-.562.303 0 .548.252.548.562zm.389-4.136c0 .53-.42.96-.937.96a.95.95 0 01-.936-.96c0-.531.419-.961.936-.961.518 0 .937.43.937.96zM21.256 2.63c0 .31-.245.561-.547.561a.554.554 0 01-.547-.561c0-.31.244-.562.547-.562.302 0 .547.251.547.562zM33.354.562c0 .31-.245.561-.548.561a.554.554 0 01-.547-.561c0-.31.244-.562.547-.562.303 0 .548.251.548.562zm4.032 2.068c0 .31-.245.561-.547.561a.555.555 0 01-.548-.561c0-.31.245-.562.548-.562.302 0 .547.251.547.562zm11.286 3.234l-1.958 4.694c-.356.856-.701 1.487-1.026 1.875a1.59 1.59 0 01-1.27.595c-.461 0-.837-.081-1.115-.24-.424-.238-.565-.56-.42-.958.13-.35.4-.465.798-.332.036.007.104.031.202.071a1.078 1.078 0 00.466.102.575.575 0 00.455-.223c.13-.151.254-.385.37-.694l-2.639-4.706a1.12 1.12 0 01-.168-.654.605.605 0 01.316-.51c.209-.111.404-.124.582-.04.175.081.328.247.455.492l2.148 3.958 1.557-3.876c.222-.551.553-.755.97-.598a.583.583 0 01.346.313c.076.184.053.43-.069.73zm2.143 7.047c-.232 0-.415-.072-.54-.214a.794.794 0 01-.19-.546V5.53a.82.82 0 01.188-.552c.127-.147.309-.22.542-.22.225 0 .405.073.535.22a.8.8 0 01.194.551v2.544h3.527V5.53c0-.221.064-.407.189-.551.126-.147.308-.22.54-.22.226 0 .406.073.536.22.129.144.194.33.194.551v6.62a.78.78 0 01-.195.547c-.13.142-.31.214-.534.214-.233 0-.415-.072-.541-.214a.794.794 0 01-.189-.546V9.419h-3.527v2.732a.778.778 0 01-.194.546c-.13.142-.31.214-.535.214zm8.48 0c-.217 0-.39-.068-.512-.202-.122-.133-.183-.321-.183-.558V5.53a.83.83 0 01.182-.552c.123-.146.307-.22.547-.22.233 0 .415.073.542.22.125.144.188.33.188.551v4.745l3.593-5.1c.198-.277.432-.417.697-.417.461 0 .695.26.695.772v6.62a.81.81 0 01-.182.546c-.122.143-.303.215-.535.215-.241 0-.427-.075-.553-.22a.8.8 0 01-.188-.54V7.416l-3.615 5.067c-.214.284-.441.428-.676.428zm12.302-4.365c.397.146.716.376.95.686.256.337.386.746.386 1.214 0 1.674-1.077 2.523-3.2 2.523-.75 0-1.404-.044-1.942-.13-.449-.065-.677-.332-.677-.793V5.67c0-.468.231-.747.688-.829a10.86 10.86 0 011.84-.141c1.934 0 2.915.727 2.915 2.161 0 .365-.095.711-.285 1.03-.17.283-.396.503-.675.655zm-.563 2.888c.27-.184.406-.497.406-.93 0-.8-.543-1.19-1.661-1.19h-1.263v2.339c.353.043.781.065 1.274.065.55 0 .968-.096 1.244-.284zM69.63 8.168c.965 0 1.433-.382 1.433-1.167 0-.698-.506-1.038-1.547-1.038-.318 0-.655.018-1 .054v2.15h1.114zm10.237 4.56a.702.702 0 01-.505.183h-3.95c-.232 0-.418-.074-.551-.22a.786.786 0 01-.2-.552V5.53c0-.222.064-.407.194-.552.13-.146.314-.22.546-.22h3.848a.7.7 0 01.504.182.658.658 0 01.19.497c0 .2-.064.362-.19.484a.7.7 0 01-.504.182h-3.13V8.05h2.492c.216 0 .389.06.515.176.127.118.192.283.192.49 0 .2-.065.365-.19.49-.127.125-.3.189-.517.189H76.12v2.17h3.243c.209 0 .378.061.505.182a.657.657 0 01.19.496c0 .2-.063.363-.19.485zm7.123-5.4c0 .914-.29 1.614-.86 2.08-.568.465-1.317.7-2.226.7-.4 0-.717-.017-.944-.05v2.093a.78.78 0 01-.195.546c-.13.142-.31.214-.534.214-.233 0-.415-.072-.541-.214a.796.796 0 01-.19-.546V5.716c0-.482.228-.773.676-.864a9.035 9.035 0 011.762-.152c.94 0 1.69.213 2.23.634.545.424.822 1.095.822 1.994zm-4.03-1.243v2.673c.214.027.504.04.864.04 1.102 0 1.638-.469 1.638-1.435 0-.903-.509-1.342-1.558-1.342-.31 0-.627.022-.944.064zm10.448 5.102c.41-.24.725-.203.927.096a.61.61 0 01.093.516c-.044.197-.167.376-.365.53-.613.463-1.403.699-2.35.699-1.2 0-2.12-.381-2.733-1.133-.612-.748-.922-1.778-.922-3.06 0-1.268.33-2.294.98-3.05.65-.759 1.566-1.143 2.72-1.143.91 0 1.627.183 2.133.545.354.248.45.554.289.912-.139.318-.45.392-.924.211-1.406-.553-2.45-.39-3.083.446-.39.514-.587 1.21-.587 2.067 0 .887.212 1.594.631 2.1.418.504.956.76 1.598.76.513 0 1.049-.167 1.593-.496zm8.356-6.429c.461 0 .695.26.695.772v6.62a.81.81 0 01-.182.546c-.123.143-.303.215-.536.215-.24 0-.426-.074-.552-.22a.797.797 0 01-.188-.54V7.415l-3.616 5.066c-.214.285-.44.429-.674.429-.218 0-.39-.068-.513-.202-.121-.133-.183-.32-.183-.559V5.53c0-.221.06-.406.182-.55.122-.148.307-.222.547-.222.233 0 .415.074.542.22a.82.82 0 01.188.552v4.745l3.592-5.1c.199-.277.433-.417.698-.417zm8.766.667c0 .2-.064.364-.19.49-.127.125-.3.188-.516.188h-1.969v6.047a.797.797 0 01-.189.547c-.126.142-.308.214-.54.214-.233 0-.415-.072-.542-.215a.8.8 0 01-.188-.546V6.103h-1.968a.688.688 0 01-.505-.189.661.661 0 01-.191-.49c0-.207.065-.372.192-.49a.714.714 0 01.504-.176h5.396c.215 0 .388.06.514.176.127.118.192.283.192.49zm5.975 6.14a.7.7 0 01.504.183.658.658 0 01.191.496c0 .2-.064.363-.191.485a.702.702 0 01-.504.182h-3.95c-.232 0-.418-.074-.552-.22a.785.785 0 01-.2-.552V5.53c0-.22.065-.406.194-.551.13-.146.314-.22.547-.22h3.847c.209 0 .379.062.504.182a.657.657 0 01.191.496c0 .2-.064.363-.191.485a.697.697 0 01-.504.182h-3.129V8.05h2.492c.216 0 .389.06.515.176.127.118.191.283.191.49 0 .2-.064.365-.19.49s-.3.189-.516.189h-2.492v2.17h3.243zm8.026-6.14c0 .2-.064.364-.19.49-.127.125-.3.188-.516.188h-1.969v6.047a.796.796 0 01-.188.547c-.127.142-.309.214-.541.214-.233 0-.415-.072-.541-.215a.795.795 0 01-.189-.546V6.103h-1.968a.688.688 0 01-.505-.189.665.665 0 01-.191-.49c0-.207.065-.372.192-.49a.717.717 0 01.504-.176h5.396c.215 0 .389.06.514.176.128.118.192.283.192.49zm10.905 6.726a.81.81 0 01-.182.545c-.123.142-.303.215-.536.215-.241 0-.427-.075-.553-.22a.798.798 0 01-.188-.54V7.416l-3.615 5.067c-.214.284-.441.428-.675.428-.218 0-.39-.068-.513-.202-.121-.134-.183-.321-.183-.558V5.53c0-.222.061-.407.182-.552.123-.146.307-.22.548-.22.233 0 .415.073.541.22.125.144.188.33.188.551v4.745l3.593-5.1c.198-.277.433-.417.698-.417.461 0 .695.26.695.772v6.62zm7.364-7.393c.216 0 .389.06.515.176.127.118.191.283.191.49a.66.66 0 01-.19.49c-.126.126-.3.19-.516.19h-1.968v6.046a.797.797 0 01-.189.547c-.126.142-.308.214-.541.214-.233 0-.415-.072-.541-.215a.795.795 0 01-.188-.546V6.103h-1.969a.69.69 0 01-.505-.189.664.664 0 01-.19-.49c0-.207.065-.372.191-.49a.717.717 0 01.504-.176h5.396zm8.548 0c.219 0 .39.073.508.215.117.141.177.328.177.557v6.62a.796.796 0 01-.189.547c-.126.142-.308.214-.541.214-.225 0-.405-.072-.535-.214a.78.78 0 01-.195-.546V7.565l-1.575 2.613c-.176.294-.399.443-.666.443-.274 0-.501-.145-.677-.431l-1.599-2.57v4.53c0 .504-.23.76-.683.76-.454 0-.684-.256-.684-.76V5.54c0-.26.063-.458.189-.588a.665.665 0 01.495-.195c.304 0 .555.161.745.479L148.4 8.93l2.237-3.707c.191-.309.43-.466.711-.466zm8.994 1.068c.657.784.99 1.796.99 3.009 0 1.22-.333 2.234-.99 3.014-.659.782-1.601 1.179-2.801 1.179-1.2 0-2.141-.397-2.796-1.179-.653-.78-.984-1.794-.984-3.014 0-1.213.331-2.225.984-3.01.655-.785 1.595-1.183 2.796-1.183 1.2 0 2.142.398 2.801 1.184zm-1.125 5.064c.39-.53.588-1.222.588-2.055 0-.835-.198-1.526-.588-2.056-.387-.526-.951-.793-1.676-.793-.718 0-1.278.267-1.665.793-.39.53-.588 1.222-.588 2.056 0 .833.198 1.525.588 2.055.387.526.947.792 1.665.792.725 0 1.289-.266 1.676-.792z" fill="#fff"/></svg>