<?xml version="1.0" encoding="UTF-8"?><!DOCTYPE svg PUBLIC "-//W3C//DTD SVG 1.1//EN" "http://www.w3.org/Graphics/SVG/1.1/DTD/svg11.dtd"><svg xmlns="http://www.w3.org/2000/svg" xmlns:xlink="http://www.w3.org/1999/xlink"><symbol id="icon-arrow-accordion" viewBox="0 0 16 10">
<path fill-rule="evenodd" clip-rule="evenodd" d="M1.86667 3.20493e-05L-3.49691e-07 1.8667L8 9.8667L16 1.8667L14.1333 3.15131e-05L8 6.13337L1.86667 3.20493e-05Z"/>
</symbol><symbol id="icon-fb" viewBox="0 0 32 32">
<circle cx="16" cy="16" r="16" fill="#2E2FB2"/>
<path d="M12.2581 16.5216H14.0119V23.7419C14.0119 23.8845 14.1274 24 14.27 24H17.2437C17.3863 24 17.5018 23.8845 17.5018 23.7419V16.5556H19.518C19.6491 16.5556 19.7594 16.4572 19.7743 16.327L20.0806 13.6689C20.089 13.5957 20.0658 13.5225 20.0169 13.4676C19.9679 13.4127 19.8978 13.3813 19.8243 13.3813H17.5019V11.715C17.5019 11.2127 17.7723 10.958 18.3058 10.958C18.3818 10.958 19.8243 10.958 19.8243 10.958C19.9668 10.958 20.0823 10.8424 20.0823 10.6999V8.25997C20.0823 8.11742 19.9668 8.00191 19.8243 8.00191H17.7316C17.7169 8.00119 17.6841 8 17.6358 8C17.2727 8 16.0106 8.07128 15.0136 8.98844C13.909 10.0048 14.0626 11.2217 14.0993 11.4327V13.3812H12.2581C12.1155 13.3812 12 13.4967 12 13.6393V16.2635C12 16.406 12.1155 16.5216 12.2581 16.5216Z" fill="white"/>
</symbol><symbol id="icon-inst" viewBox="0 0 32 32">
<circle cx="16" cy="16" r="16" fill="#2E2FB2"/>
<path d="M19.7713 7H12.2287C9.34559 7 7 9.34559 7 12.2287V19.7713C7 22.6544 9.34559 25 12.2287 25H19.7713C22.6544 25 25 22.6544 25 19.7713V12.2287C25 9.34559 22.6544 7 19.7713 7ZM23.5938 19.7713C23.5938 21.879 21.879 23.5938 19.7713 23.5938H12.2287C10.121 23.5938 8.40625 21.879 8.40625 19.7713V12.2287C8.40625 10.121 10.121 8.40625 12.2287 8.40625H19.7713C21.879 8.40625 23.5938 10.121 23.5938 12.2287V19.7713Z" fill="white"/>
<path d="M16 11.1484C13.3248 11.1484 11.1484 13.3248 11.1484 16C11.1484 18.6752 13.3248 20.8516 16 20.8516C18.6752 20.8516 20.8516 18.6752 20.8516 16C20.8516 13.3248 18.6752 11.1484 16 11.1484ZM16 19.4453C14.1003 19.4453 12.5547 17.8997 12.5547 16C12.5547 14.1003 14.1003 12.5547 16 12.5547C17.8997 12.5547 19.4453 14.1003 19.4453 16C19.4453 17.8997 17.8997 19.4453 16 19.4453Z" fill="white"/>
<path d="M20.9219 11.7812C21.3102 11.7812 21.625 11.4665 21.625 11.0781C21.625 10.6898 21.3102 10.375 20.9219 10.375C20.5335 10.375 20.2188 10.6898 20.2188 11.0781C20.2188 11.4665 20.5335 11.7812 20.9219 11.7812Z" fill="white"/>
</symbol><symbol id="icon-tv" viewBox="0 0 32 32">
<circle cx="16" cy="16" r="16" fill="#2E2FB2"/>
<path d="M23.9688 11.566C23.3812 11.8266 22.7499 12.0027 22.0872 12.0819C22.7636 11.6764 23.2831 11.0344 23.5277 10.2693C22.8946 10.6448 22.1935 10.9174 21.4472 11.0643C20.8497 10.4276 19.9982 10.0298 19.0558 10.0298C17.2465 10.0298 15.7797 11.4966 15.7797 13.3059C15.7797 13.5626 15.8087 13.8127 15.8645 14.0525C13.1417 13.9158 10.7276 12.6116 9.1118 10.6294C8.82979 11.1133 8.66819 11.676 8.66819 12.2765C8.66819 13.4131 9.24657 14.4159 10.1257 15.0034C9.58862 14.9864 9.08345 14.839 8.64178 14.5936C8.64147 14.6073 8.64147 14.621 8.64147 14.6348C8.64147 16.2222 9.77079 17.5463 11.2695 17.8473C10.9946 17.9221 10.7052 17.9623 10.4064 17.9623C10.1952 17.9623 9.99002 17.9417 9.78994 17.9034C10.2069 19.2049 11.4168 20.1523 12.8504 20.1786C11.7292 21.0574 10.3165 21.5811 8.78154 21.5811C8.51708 21.5811 8.25631 21.5656 8 21.5352C9.44986 22.4649 11.172 23.0073 13.0221 23.0073C19.0482 23.0073 22.3435 18.0151 22.3435 13.6857C22.3435 13.5437 22.3403 13.4024 22.334 13.2618C22.9742 12.8 23.5296 12.223 23.9688 11.566Z" fill="white"/>
</symbol><symbol id="icon-vk" viewBox="0 0 32 32">
<circle cx="16" cy="16" r="16" fill="#2E2FB2"/>
<path d="M22.4591 17.4634C23.0549 18.0451 23.6838 18.5924 24.2182 19.2328C24.4542 19.5174 24.6777 19.811 24.8487 20.1413C25.091 20.6108 24.8715 21.1274 24.4506 21.1554L21.8338 21.1542C21.1589 21.2102 20.6205 20.9385 20.1677 20.4771C19.8054 20.1081 19.4699 19.7153 19.1216 19.3338C18.9787 19.1779 18.8293 19.0312 18.6507 18.9152C18.2934 18.6833 17.9834 18.7543 17.7792 19.1269C17.5713 19.5059 17.5242 19.9255 17.5037 20.3478C17.4757 20.964 17.2895 21.126 16.6705 21.1542C15.3477 21.2166 14.0923 21.0164 12.9261 20.3491C11.8979 19.7609 11.1006 18.9304 10.4066 17.9902C9.05543 16.1594 8.0207 14.1478 7.09072 12.0797C6.88138 11.6138 7.03447 11.3637 7.54856 11.3548C8.40224 11.3382 9.25579 11.3394 10.1105 11.3536C10.4574 11.3587 10.6871 11.5577 10.8211 11.8855C11.2829 13.0211 11.8481 14.1016 12.5575 15.1031C12.7464 15.3698 12.939 15.6364 13.2133 15.8241C13.5168 16.0319 13.7478 15.963 13.8906 15.6249C13.9812 15.4106 14.0208 15.1797 14.0413 14.9501C14.1089 14.1603 14.1178 13.3719 13.9992 12.5848C13.9263 12.0936 13.6497 11.7757 13.1595 11.6827C12.9094 11.6353 12.9467 11.5422 13.0678 11.3995C13.2781 11.1533 13.4759 11 13.8703 11H16.8277C17.2932 11.0919 17.3966 11.301 17.4604 11.7695L17.4629 15.0545C17.4578 15.2359 17.5535 15.7741 17.8802 15.8941C18.1416 15.9796 18.3139 15.7704 18.4708 15.6046C19.1789 14.8531 19.6842 13.965 20.1357 13.0453C20.3361 12.641 20.5083 12.221 20.6753 11.8014C20.799 11.49 20.9931 11.3368 21.3438 11.3436L24.1901 11.3461C24.2745 11.3461 24.3599 11.3474 24.4417 11.3614C24.9213 11.4431 25.0527 11.6494 24.9046 12.1178C24.6712 12.8526 24.217 13.4649 23.773 14.0801C23.2983 14.7369 22.7907 15.3712 22.32 16.0319C21.8875 16.6352 21.9218 16.9394 22.4591 17.4634Z" fill="white"/>
</symbol></svg>