<svg width="16" height="10" fill="none" xmlns="http://www.w3.org/2000/svg"><path d="M13.77 5.757c.531.518 1.091 1.006 1.567 1.576.21.254.41.515.562.81.216.418.02.878-.355.903l-2.33-.001c-.602.05-1.082-.192-1.485-.603-.322-.329-.621-.679-.932-1.019a2.206 2.206 0 00-.42-.372c-.317-.207-.593-.144-.775.188-.186.338-.228.711-.246 1.088-.025.548-.19.693-.742.718-1.178.055-2.296-.123-3.335-.717-.916-.524-1.626-1.264-2.245-2.101C1.831 4.596.91 2.804.081.962-.106.547.03.324.489.316 1.249.301 2.009.302 2.77.315c.309.005.513.182.633.474A14.146 14.146 0 004.95 3.655c.169.237.34.475.585.642.27.185.476.124.603-.177.08-.191.116-.397.134-.601.06-.704.068-1.406-.037-2.107C6.17.974 5.923.69 5.487.608c-.223-.042-.19-.125-.082-.252C5.592.136 5.768 0 6.12 0h2.634c.415.082.507.268.564.685l.002 2.927c-.005.161.08.64.372.747.232.077.386-.11.526-.257.63-.67 1.08-1.46 1.483-2.28.178-.36.332-.734.48-1.108.11-.278.284-.414.596-.408l2.535.002c.075 0 .152.001.224.014.428.073.545.256.413.674-.208.654-.613 1.2-1.008 1.748-.423.585-.875 1.15-1.295 1.738-.385.538-.354.809.124 1.275z" fill="#6A6A6A"/></svg>