<svg width="16" height="10" viewBox="0 0 16 10" fill="none" xmlns="http://www.w3.org/2000/svg">
<path d="M13.7703 5.75729C14.301 6.27546 14.8612 6.76299 15.3372 7.33342C15.5475 7.58691 15.7466 7.8485 15.8989 8.14267C16.1147 8.56086 15.9192 9.02106 15.5442 9.04603L13.2133 9.04497C12.6121 9.09486 12.1325 8.85283 11.7293 8.44179C11.4066 8.11308 11.1077 7.76323 10.7974 7.42342C10.6702 7.28453 10.537 7.15385 10.3779 7.05055C10.0597 6.844 9.78353 6.90724 9.60169 7.23911C9.41649 7.57666 9.37449 7.95043 9.3563 8.32662C9.33133 8.87549 9.16542 9.01979 8.61407 9.04492C7.43578 9.10049 6.31753 8.92222 5.2787 8.32782C4.36284 7.80381 3.65263 7.06406 3.03447 6.22657C1.83089 4.59582 0.909193 2.80389 0.0808054 0.961756C-0.105658 0.546721 0.0307068 0.323932 0.488638 0.316047C1.24905 0.301275 2.00936 0.302326 2.77067 0.314995C3.07973 0.319516 3.28433 0.49678 3.40366 0.78875C3.81507 1.80034 4.31847 2.76278 4.95036 3.65488C5.11863 3.89239 5.29022 4.1299 5.53456 4.29707C5.80487 4.48217 6.01068 4.42082 6.13784 4.1197C6.21854 3.92877 6.25386 3.72312 6.27205 3.51862C6.3323 2.81509 6.34024 2.11276 6.23457 1.4117C6.1697 0.974162 5.92326 0.690919 5.48667 0.608122C5.26388 0.565909 5.29705 0.483007 5.40492 0.355842C5.59228 0.136523 5.76849 0 6.11976 0H8.75406C9.16878 0.0818505 9.26088 0.268156 9.31766 0.685452L9.31992 3.61162C9.3154 3.77316 9.40061 4.25254 9.69158 4.35947C9.92447 4.43559 10.078 4.24928 10.2177 4.10162C10.8484 3.4322 11.2986 2.64108 11.7007 1.8219C11.8792 1.46169 12.0327 1.08761 12.1814 0.713839C12.2916 0.436483 12.4645 0.300013 12.7769 0.306059L15.3122 0.308319C15.3874 0.308319 15.4635 0.309423 15.5363 0.321882C15.9635 0.394691 16.0806 0.578473 15.9486 0.995663C15.7407 1.6502 15.3362 2.19566 14.9407 2.74365C14.5179 3.32869 14.0657 3.89371 13.6464 4.48222C13.2611 5.01964 13.2917 5.29053 13.7703 5.75729Z" fill="#6A6A6A"/>
</svg>
